<svg width="64" height="64" viewBox="0 0 64 64" fill="none" xmlns="http://www.w3.org/2000/svg">
<rect width="64" height="64" fill="white"/>
<path d="M12.0447 29.4436H8.15611L3.72338 29.4431H0.0440143L6.47967 39.4336L12.0447 29.4436Z" fill="black"/>
<path d="M6 32C6 17.6406 17.4167 6 31.5 6C45.5833 6 57 17.6406 57 32C57 46.3594 45.5833 58 31.5 58" stroke="black" stroke-width="3.7"/>
<path d="M30.7088 44.9091H33.3906L33.4134 42.2841C38.3338 41.9091 41.1861 39.2955 41.1974 35.3523C41.1861 31.4773 38.2656 29.4205 34.2202 28.5114L33.5497 28.3523L33.5952 22.6705C35.1065 23.0227 36.027 23.9886 36.1634 25.4205H40.8793C40.8224 21.6591 38.0156 18.9659 33.6406 18.4886L33.6634 15.8182H30.9815L30.9588 18.4659C26.5156 18.8977 23.3793 21.5795 23.402 25.4545C23.3906 28.8864 25.8111 30.8523 29.7429 31.7955L30.8338 32.0682L30.777 38.0795C28.9247 37.7273 27.6747 36.5909 27.5497 34.6932H22.7884C22.902 39.2841 25.9134 41.8523 30.7315 42.2727L30.7088 44.9091ZM33.4588 38.0795L33.5043 32.7727C35.2656 33.3295 36.2202 34.0455 36.2315 35.3409C36.2202 36.7159 35.1747 37.7386 33.4588 38.0795ZM30.8679 27.6591C29.4474 27.1705 28.4247 26.4318 28.4474 25.125C28.4474 23.9091 29.3111 22.9659 30.9134 22.6364L30.8679 27.6591Z" fill="#F88F62"/>
<path d="M30.7088 44.9091L27.7089 44.8832L27.6828 47.9091H30.7088V44.9091ZM33.3906 44.9091V47.9091H36.3648L36.3905 44.9351L33.3906 44.9091ZM33.4134 42.2841L33.1854 39.2928L30.4373 39.5022L30.4135 42.2581L33.4134 42.2841ZM41.1974 35.3523L44.1974 35.3609L44.1975 35.3522L44.1974 35.3435L41.1974 35.3523ZM34.2202 28.5114L33.5275 31.4303L33.545 31.4344L33.5624 31.4384L34.2202 28.5114ZM33.5497 28.3523L30.5498 28.3283L30.5307 30.7192L32.8571 31.2712L33.5497 28.3523ZM33.5952 22.6705L34.2762 19.7488L30.6253 18.8978L30.5953 22.6465L33.5952 22.6705ZM36.1634 25.4205L33.1769 25.7049L33.4355 28.4205H36.1634V25.4205ZM40.8793 25.4205V28.4205H43.9249L43.8789 25.3751L40.8793 25.4205ZM33.6406 18.4886L30.6407 18.4631L30.6176 21.1767L33.3153 21.4709L33.6406 18.4886ZM33.6634 15.8182L36.6632 15.8437L36.689 12.8182H33.6634V15.8182ZM30.9815 15.8182V12.8182H28.0072L27.9816 15.7924L30.9815 15.8182ZM30.9588 18.4659L31.249 21.4518L33.9355 21.1907L33.9587 18.4917L30.9588 18.4659ZM23.402 25.4545L26.402 25.4645L26.402 25.4507L26.4019 25.4369L23.402 25.4545ZM29.7429 31.7955L30.4705 28.885L30.4566 28.8816L30.4427 28.8782L29.7429 31.7955ZM30.8338 32.0682L33.8337 32.0965L33.856 29.7314L31.5614 29.1578L30.8338 32.0682ZM30.777 38.0795L30.2165 41.0267L33.7429 41.6974L33.7769 38.1079L30.777 38.0795ZM27.5497 34.6932L30.5432 34.496L30.3586 31.6932H27.5497V34.6932ZM22.7884 34.6932V31.6932H19.7132L19.7893 34.7674L22.7884 34.6932ZM30.7315 42.2727L33.7314 42.2986L33.7553 39.5252L30.9923 39.2841L30.7315 42.2727ZM33.4588 38.0795L30.4589 38.0539L30.4273 41.7405L34.0434 41.022L33.4588 38.0795ZM33.5043 32.7727L34.4085 29.9123L30.5391 28.689L30.5044 32.747L33.5043 32.7727ZM36.2315 35.3409L39.2314 35.3657L39.2316 35.3401L39.2314 35.3146L36.2315 35.3409ZM30.8679 27.6591L29.892 30.4959L33.8301 31.8506L33.8678 27.6862L30.8679 27.6591ZM28.4474 25.125L31.447 25.1772L31.4474 25.1511V25.125H28.4474ZM30.9134 22.6364L33.9132 22.6635L33.9468 18.9497L30.309 19.6979L30.9134 22.6364ZM30.7088 47.9091H33.3906V41.9091H30.7088V47.9091ZM36.3905 44.9351L36.4132 42.3101L30.4135 42.2581L30.3907 44.8831L36.3905 44.9351ZM33.6413 45.2754C36.5571 45.0532 39.1953 44.1432 41.15 42.389C43.161 40.5842 44.1895 38.1124 44.1974 35.3609L38.1975 35.3436C38.194 36.5353 37.7907 37.3419 37.1426 37.9235C36.4382 38.5556 35.19 39.14 33.1854 39.2928L33.6413 45.2754ZM44.1974 35.3435C44.1892 32.5477 43.0874 30.2608 41.2272 28.5886C39.4641 27.0036 37.1721 26.0999 34.8779 25.5844L33.5624 31.4384C35.3137 31.8319 36.5046 32.4112 37.216 33.0506C37.8302 33.6028 38.1943 34.2818 38.1975 35.3611L44.1974 35.3435ZM34.9128 25.5924L34.2423 25.4333L32.8571 31.2712L33.5275 31.4303L34.9128 25.5924ZM36.5496 28.3763L36.5951 22.6945L30.5953 22.6465L30.5498 28.3283L36.5496 28.3763ZM32.9142 25.5921C33.2122 25.6616 33.2533 25.7425 33.2077 25.694C33.188 25.673 33.1726 25.648 33.1651 25.6307C33.1585 25.6155 33.1701 25.6342 33.1769 25.7049L39.1498 25.136C39.0247 23.8223 38.5154 22.5815 37.582 21.5872C36.6643 20.6097 35.4895 20.0316 34.2762 19.7488L32.9142 25.5921ZM36.1634 28.4205H40.8793V22.4205H36.1634V28.4205ZM43.8789 25.3751C43.8387 22.7122 42.8038 20.3285 40.9548 18.5568C39.1342 16.8125 36.6795 15.8023 33.966 15.5063L33.3153 21.4709C34.9768 21.6522 36.1129 22.2273 36.8038 22.8892C37.4661 23.5238 37.863 24.3673 37.8796 25.4658L43.8789 25.3751ZM36.6405 18.5142L36.6632 15.8437L30.6635 15.7926L30.6407 18.4631L36.6405 18.5142ZM33.6634 12.8182H30.9815V18.8182H33.6634V12.8182ZM27.9816 15.7924L27.9589 18.4402L33.9587 18.4917L33.9814 15.8439L27.9816 15.7924ZM30.6686 15.48C25.2584 16.0058 20.3672 19.5275 20.402 25.4721L26.4019 25.4369C26.3913 23.6316 27.7728 21.7897 31.249 21.4518L30.6686 15.48ZM20.402 25.4446C20.3937 27.9604 21.3152 30.1098 23.0297 31.7353C24.6512 33.2727 26.8018 34.175 29.0431 34.7127L30.4427 28.8782C28.7522 28.4727 27.7266 27.9205 27.1578 27.3812C26.682 26.93 26.3989 26.3806 26.402 25.4645L20.402 25.4446ZM29.0153 34.7059L30.1062 34.9786L31.5614 29.1578L30.4705 28.885L29.0153 34.7059ZM27.8339 32.0398L27.7771 38.0512L33.7769 38.1079L33.8337 32.0965L27.8339 32.0398ZM31.3375 35.1324C30.8594 35.0414 30.685 34.8931 30.6476 34.8553C30.6288 34.8363 30.6147 34.8171 30.6002 34.7835C30.5846 34.7474 30.554 34.6601 30.5432 34.496L24.5562 34.8904C24.6618 36.4937 25.271 37.9526 26.3836 39.0765C27.4656 40.1694 28.8423 40.7654 30.2165 41.0267L31.3375 35.1324ZM27.5497 31.6932H22.7884V37.6932H27.5497V31.6932ZM19.7893 34.7674C19.863 37.747 20.9077 40.3493 22.957 42.2477C24.9544 44.098 27.6159 45.0122 30.4707 45.2614L30.9923 39.2841C29.029 39.1128 27.7757 38.5327 27.0345 37.8461C26.3451 37.2075 25.8273 36.2302 25.7874 34.6189L19.7893 34.7674ZM27.7316 42.2469L27.7089 44.8832L33.7087 44.935L33.7314 42.2986L27.7316 42.2469ZM36.4587 38.1052L36.5042 32.7984L30.5044 32.747L30.4589 38.0539L36.4587 38.1052ZM32.6 35.6332C32.9459 35.7425 33.1865 35.8395 33.3495 35.9196C33.5137 36.0002 33.552 36.0408 33.5272 36.0186C33.4916 35.9869 33.3987 35.8902 33.3226 35.7245C33.2456 35.5571 33.2321 35.4202 33.2317 35.3672L39.2314 35.3146C39.2181 33.7978 38.5951 32.4991 37.5211 31.541C36.5854 30.7065 35.4226 30.2328 34.4085 29.9123L32.6 35.6332ZM33.2316 35.3161C33.232 35.2761 33.2416 35.2026 33.278 35.1178C33.3138 35.0342 33.3575 34.9821 33.379 34.9608C33.4142 34.9262 33.304 35.0517 32.8742 35.1371L34.0434 41.022C36.6101 40.5121 39.2043 38.6525 39.2314 35.3657L33.2316 35.3161ZM31.8438 24.8222C31.5981 24.7377 31.4235 24.6605 31.3053 24.5971C31.1859 24.533 31.1601 24.5024 31.1833 24.5244C31.2133 24.5529 31.2942 24.641 31.3615 24.7936C31.4314 24.9523 31.4484 25.0944 31.447 25.1772L25.4479 25.0728C25.4206 26.6451 26.0699 27.942 27.0497 28.8733C27.9308 29.7108 29.0065 30.1913 29.892 30.4959L31.8438 24.8222ZM31.4474 25.125C31.4474 25.181 31.4364 25.2749 31.3922 25.3853C31.3477 25.4965 31.2863 25.5821 31.2327 25.6373C31.1298 25.7434 31.1483 25.6508 31.5177 25.5749L30.309 19.6979C29.0761 19.9514 27.8617 20.4952 26.9264 21.4593C25.955 22.4605 25.4474 23.7547 25.4474 25.125H31.4474ZM27.9135 22.6092L27.868 27.6319L33.8678 27.6862L33.9132 22.6635L27.9135 22.6092Z" fill="black"/>
<path d="M30.7088 44.9091H33.3906L33.4134 42.2841C38.3338 41.9091 41.1861 39.2955 41.1974 35.3523C41.1861 31.4773 38.2656 29.4205 34.2202 28.5114L33.5497 28.3523L33.5952 22.6705C35.1065 23.0227 36.027 23.9886 36.1634 25.4205H40.8793C40.8224 21.6591 38.0156 18.9659 33.6406 18.4886L33.6634 15.8182H30.9815L30.9588 18.4659C26.5156 18.8977 23.3793 21.5795 23.402 25.4545C23.3906 28.8864 25.8111 30.8523 29.7429 31.7955L30.8338 32.0682L30.777 38.0795C28.9247 37.7273 27.6747 36.5909 27.5497 34.6932H22.7884C22.902 39.2841 25.9134 41.8523 30.7315 42.2727L30.7088 44.9091ZM33.4588 38.0795L33.5043 32.7727C35.2656 33.3295 36.2202 34.0455 36.2315 35.3409C36.2202 36.7159 35.1747 37.7386 33.4588 38.0795ZM30.8679 27.6591C29.4474 27.1705 28.4247 26.4318 28.4474 25.125C28.4474 23.9091 29.3111 22.9659 30.9134 22.6364L30.8679 27.6591Z" fill="#F88F62"/>
</svg>
