<svg width="64" height="64" viewBox="0 0 64 64" fill="none" xmlns="http://www.w3.org/2000/svg">
<rect width="64" height="64" fill="white"/>
<ellipse cx="28.7756" cy="36.7098" rx="3.91073" ry="3.92091" transform="rotate(-8.40089 28.7756 36.7098)" fill="black"/>
<path d="M37.4239 24.1745L30.1556 38.5507L25.8039 35.319L37.4239 24.1745Z" fill="black"/>
<path d="M7 32C7 17.6406 18.1929 6 32 6C45.8071 6 57 17.6406 57 32C57 46.3594 45.8071 58 32 58" stroke="black" stroke-width="4"/>
<path d="M32 14C29.5044 13.9985 27.033 14.4511 24.7271 15.332C22.4212 16.2129 20.326 17.5047 18.5614 19.1336C16.7967 20.7625 15.3973 22.6965 14.443 24.825C13.4887 26.9536 12.9984 29.2349 13 31.5385H14.7776C14.9943 28.0901 16.631 24.8486 19.3526 22.4779C22.0741 20.1071 25.6746 18.7866 29.4166 18.7866C33.1587 18.7866 36.7592 20.1071 39.4807 22.4779C42.2023 24.8486 43.839 28.5516 44.0557 32H51C51 27.3485 48.9982 22.426 45.435 19.1369C41.8718 15.8478 37.0391 14 32 14Z" fill="#F88F62"/>
</svg>
