<?xml version="1.0" standalone="no"?>
<!DOCTYPE svg PUBLIC "-//W3C//DTD SVG 20010904//EN"
 "http://www.w3.org/TR/2001/REC-SVG-20010904/DTD/svg10.dtd">
<svg version="1.0" xmlns="http://www.w3.org/2000/svg"
 width="512.000000pt" height="512.000000pt" viewBox="0 0 512.000000 512.000000"
 preserveAspectRatio="xMidYMid meet">

<g transform="translate(0.000000,512.000000) scale(0.100000,-0.100000)"
fill="#000000" stroke="none">
<path d="M287 2849 c-23 -13 -37 -50 -30 -77 2 -11 21 -27 41 -36 73 -32 356
-126 379 -126 28 0 57 41 48 70 -3 11 -20 27 -37 36 -46 24 -356 144 -370 144
-7 0 -21 -5 -31 -11z"/>
<path d="M4180 2802 c-21 -7 -30 -23 -30 -54 0 -38 25 -48 213 -88 86 -18 157
-37 157 -40 0 -8 -12 -11 -279 -50 -222 -33 -237 -40 -232 -112 0 -10 15 -25
32 -34 30 -15 72 -15 164 3 l30 5 -28 -22 c-36 -28 -60 -76 -53 -104 7 -28 49
-48 84 -40 142 34 608 272 626 320 3 9 0 28 -6 42 -17 35 -53 47 -358 115
-281 63 -300 67 -320 59z"/>
<path d="M900 2640 c-27 -27 -26 -71 3 -98 19 -18 59 -28 210 -53 102 -18 197
-29 211 -25 52 13 66 89 23 124 -14 12 -350 72 -403 72 -13 0 -33 -9 -44 -20z"/>
<path d="M3690 2508 c-150 -16 -178 -22 -192 -40 -23 -26 -23 -60 1 -89 16
-20 27 -24 73 -22 84 3 321 43 346 59 45 29 16 117 -38 113 -8 -1 -94 -10
-190 -21z"/>
<path d="M1580 2490 c-25 -25 -26 -74 -1 -99 24 -24 78 -35 259 -56 132 -15
145 -15 168 0 46 30 51 90 11 124 -17 13 -280 51 -364 51 -40 0 -58 -5 -73
-20z"/>
<path d="M3097 2459 c-76 -11 -154 -26 -173 -34 -41 -17 -59 -54 -43 -89 23
-49 73 -56 246 -30 134 19 183 31 206 51 23 22 22 74 -3 101 -25 27 -45 27
-233 1z"/>
<path d="M2417 2431 c-109 -5 -120 -8 -138 -30 -26 -32 -24 -63 7 -92 25 -24
28 -24 212 -24 223 1 245 7 250 71 6 79 -42 90 -331 75z"/>
</g>
</svg>
